<?xml version="1.0" standalone="no"?>
<!DOCTYPE svg PUBLIC "-//W3C//DTD SVG 20010904//EN"
 "http://www.w3.org/TR/2001/REC-SVG-20010904/DTD/svg10.dtd">
<svg version="1.0" xmlns="http://www.w3.org/2000/svg"
 width="820.000000pt" height="793.000000pt" viewBox="0 0 820.000000 793.000000"
 preserveAspectRatio="xMidYMid meet">
<metadata>
Created by potrace 1.16, written by Peter Selinger 2001-2019
</metadata>
<g transform="translate(0.000000,793.000000) scale(0.100000,-0.100000)"
fill="#000000" stroke="none">
<path d="M1525 6210 c-43 -48 -10 -120 55 -120 45 0 73 27 73 70 0 43 -28 70
-73 70 -24 0 -43 -7 -55 -20z"/>
<path d="M720 4766 c0 -106 -3 -146 -12 -149 -10 -4 -10 -6 0 -6 18 -1 18
-567 0 -574 -10 -4 -10 -6 0 -6 18 -1 18 -567 0 -574 -10 -4 -10 -6 0 -6 18
-1 18 -567 0 -574 -10 -4 -10 -6 0 -6 18 -1 18 -567 0 -574 -10 -4 -10 -6 0
-6 18 -1 18 -567 0 -574 -10 -4 -10 -6 0 -6 9 -1 12 -65 12 -285 0 -218 -3
-286 -12 -289 -10 -4 -10 -6 0 -6 9 -1 12 -65 12 -286 0 -221 -3 -285 -12
-285 -9 0 -10 -3 -2 -8 6 -4 14 -14 17 -22 4 -12 6 -11 6 3 1 16 29 17 440 17
410 0 440 -1 444 -17 4 -17 5 -17 6 0 1 16 29 17 445 17 415 0 445 -1 449 -18
4 -16 5 -16 6 1 1 16 29 17 440 17 410 0 440 -1 444 -17 4 -17 5 -17 6 0 1 16
29 17 440 17 410 0 440 -1 444 -17 4 -17 5 -17 6 0 1 16 29 17 440 17 410 0
440 -1 444 -17 4 -17 5 -17 6 0 1 16 29 17 445 17 415 0 445 -1 449 -17 4 -17
5 -17 6 0 1 16 29 17 440 17 410 0 440 -1 444 -17 4 -17 5 -17 6 0 1 16 19 17
226 17 l225 0 0 2180 0 2180 -3355 0 -3355 0 0 -144z m6700 -2036 l0 -2170
-1807 0 -1808 0 -485 421 c-267 231 -514 441 -550 466 -95 66 -62 36 475 -427
270 -233 499 -431 510 -441 19 -19 -19 -19 -1503 -19 l-1522 0 0 2170 0 2170
3345 0 3345 0 0 -2170z"/>
<path d="M750 3186 c0 -3 370 -326 823 -717 452 -392 838 -726 856 -743 l35
-31 -30 37 c-31 40 -1644 1445 -1669 1454 -8 4 -15 4 -15 0z"/>
</g>
</svg>
